<svg width="1600" height="900" viewBox="0 0 1600 900" fill="none" xmlns="http://www.w3.org/2000/svg">
  <defs>
    <linearGradient id="bg" x1="120" y1="80" x2="1450" y2="820" gradientUnits="userSpaceOnUse">
      <stop stop-color="#140B24"/>
      <stop offset="1" stop-color="#07040E"/>
    </linearGradient>
    <linearGradient id="panel" x1="230" y1="180" x2="1210" y2="760" gradientUnits="userSpaceOnUse">
      <stop stop-color="#23113D"/>
      <stop offset="1" stop-color="#130A24"/>
    </linearGradient>
    <linearGradient id="accent" x1="294" y1="214" x2="742" y2="544" gradientUnits="userSpaceOnUse">
      <stop stop-color="#A855F7"/>
      <stop offset="0.55" stop-color="#D946EF"/>
      <stop offset="1" stop-color="#FB7185"/>
    </linearGradient>
  </defs>

  <rect width="1600" height="900" rx="40" fill="url(#bg)"/>
  <circle cx="1360" cy="140" r="220" fill="#8B5CF6" fill-opacity="0.12"/>
  <circle cx="210" cy="760" r="180" fill="#FB7185" fill-opacity="0.10"/>
  <circle cx="1160" cy="760" r="260" fill="#6366F1" fill-opacity="0.08"/>

  <rect x="80" y="80" width="1440" height="740" rx="36" fill="url(#panel)" stroke="rgba(255,255,255,0.08)"/>

  <text x="138" y="178" fill="#FFB0C2" font-family="Outfit, Arial, sans-serif" font-size="28" font-weight="700" letter-spacing="8">USDA AI EVALS ENGINE</text>
  <text x="136" y="290" fill="#F6F1FF" font-family="Sora, Arial, sans-serif" font-size="98" font-weight="700">AIMetrics</text>
  <text x="138" y="366" fill="#C8BDE4" font-family="Outfit, Arial, sans-serif" font-size="38" font-weight="500">Compare models. Score trust. Track drift.</text>

  <text x="138" y="470" fill="#F6F1FF" font-family="Outfit, Arial, sans-serif" font-size="32" font-weight="600">A CI/CD-style evaluation platform for AI systems</text>
  <text x="138" y="520" fill="#B8ADD8" font-family="Outfit, Arial, sans-serif" font-size="28">Side-by-side LLM comparison, TEVVRL scoring, trend monitoring, and deployment readiness.</text>

  <g>
    <rect x="138" y="610" width="186" height="58" rx="29" fill="#1E1333" stroke="rgba(255,255,255,0.10)"/>
    <text x="171" y="648" fill="#F6F1FF" font-family="Outfit, Arial, sans-serif" font-size="24" font-weight="600">GPT-5</text>
    <rect x="342" y="610" width="208" height="58" rx="29" fill="#1E1333" stroke="rgba(255,255,255,0.10)"/>
    <text x="382" y="648" fill="#F6F1FF" font-family="Outfit, Arial, sans-serif" font-size="24" font-weight="600">Gemini</text>
    <rect x="570" y="610" width="228" height="58" rx="29" fill="#1E1333" stroke="rgba(255,255,255,0.10)"/>
    <text x="608" y="648" fill="#F6F1FF" font-family="Outfit, Arial, sans-serif" font-size="24" font-weight="600">DeepSeek</text>
  </g>

  <g>
    <rect x="930" y="170" width="474" height="540" rx="34" fill="#10091D" stroke="rgba(255,255,255,0.08)"/>
    <circle cx="1166" cy="305" r="128" stroke="url(#accent)" stroke-width="10"/>
    <path d="M1068 374L1121 318L1165 346L1220 278L1270 308" stroke="url(#accent)" stroke-width="10" stroke-linecap="round" stroke-linejoin="round"/>
    <circle cx="1068" cy="374" r="12" fill="#FB7185"/>
    <circle cx="1121" cy="318" r="12" fill="#C084FC"/>
    <circle cx="1165" cy="346" r="12" fill="#F6F1FF"/>
    <circle cx="1220" cy="278" r="12" fill="#8B5CF6"/>
    <circle cx="1270" cy="308" r="12" fill="#FB7185"/>

    <text x="1000" y="500" fill="#F6F1FF" font-family="Sora, Arial, sans-serif" font-size="40" font-weight="700">Trustworthy AI, visualized</text>
    <text x="1000" y="548" fill="#B8ADD8" font-family="Outfit, Arial, sans-serif" font-size="26">See which model wins, why it wins,</text>
    <text x="1000" y="584" fill="#B8ADD8" font-family="Outfit, Arial, sans-serif" font-size="26">and how performance changes over time.</text>
  </g>
</svg>
