<svg width="1200" height="320" viewBox="0 0 1200 320" fill="none" xmlns="http://www.w3.org/2000/svg">
  <defs>
    <linearGradient id="bgGradient" x1="36" y1="28" x2="320" y2="292" gradientUnits="userSpaceOnUse">
      <stop stop-color="#1A0F2E"/>
      <stop offset="1" stop-color="#090511"/>
    </linearGradient>
    <linearGradient id="ringGradient" x1="58" y1="48" x2="280" y2="260" gradientUnits="userSpaceOnUse">
      <stop stop-color="#A855F7"/>
      <stop offset="0.52" stop-color="#D946EF"/>
      <stop offset="1" stop-color="#FB7185"/>
    </linearGradient>
    <linearGradient id="barGradient" x1="96" y1="120" x2="226" y2="214" gradientUnits="userSpaceOnUse">
      <stop stop-color="#8B5CF6"/>
      <stop offset="1" stop-color="#FB7185"/>
    </linearGradient>
    <filter id="glow" x="0" y="0" width="356" height="320" filterUnits="userSpaceOnUse" color-interpolation-filters="sRGB">
      <feFlood flood-opacity="0" result="BackgroundImageFix"/>
      <feBlend mode="normal" in="SourceGraphic" in2="BackgroundImageFix" result="shape"/>
      <feGaussianBlur stdDeviation="16" result="effect1_foregroundBlur_1_2"/>
    </filter>
  </defs>

  <g filter="url(#glow)">
    <rect x="36" y="28" width="284" height="264" rx="60" fill="url(#bgGradient)"/>
    <rect x="36" y="28" width="284" height="264" rx="60" stroke="rgba(255,255,255,0.12)" stroke-width="2"/>

    <circle cx="178" cy="160" r="86" stroke="url(#ringGradient)" stroke-width="10"/>
    <path d="M108 195L146 150L177 173L216 121L248 144" stroke="url(#ringGradient)" stroke-width="9" stroke-linecap="round" stroke-linejoin="round"/>

    <circle cx="108" cy="195" r="11" fill="#FB7185"/>
    <circle cx="146" cy="150" r="11" fill="#C084FC"/>
    <circle cx="177" cy="173" r="11" fill="#F5F3FF"/>
    <circle cx="216" cy="121" r="11" fill="#8B5CF6"/>
    <circle cx="248" cy="144" r="11" fill="#FB7185"/>

    <rect x="97" y="120" width="18" height="62" rx="9" fill="url(#barGradient)"/>
    <rect x="122" y="98" width="18" height="84" rx="9" fill="url(#barGradient)"/>
    <rect x="147" y="134" width="18" height="48" rx="9" fill="url(#barGradient)"/>
  </g>

  <g>
    <text x="380" y="142" fill="#F6F1FF" font-family="Sora, Outfit, Arial, sans-serif" font-size="94" font-weight="700" letter-spacing="-3">AIMetrics</text>
    <text x="384" y="188" fill="#FFB0C2" font-family="Outfit, Arial, sans-serif" font-size="28" font-weight="600" letter-spacing="8">USDA AI EVALS ENGINE</text>
    <text x="384" y="244" fill="#B8ADD8" font-family="Outfit, Arial, sans-serif" font-size="34" font-weight="500">
      Compare models. Score trust. Track drift.
    </text>
  </g>
</svg>
